<?xml version="1.0" encoding="utf-8"?>
<!-- Generator: Adobe Illustrator 22.1.0, SVG Export Plug-In . SVG Version: 6.00 Build 0)  -->
<svg version="1.1" id="Light" xmlns="http://www.w3.org/2000/svg" xmlns:xlink="http://www.w3.org/1999/xlink" x="0px" y="0px"
	 viewBox="0 0 50 50" style="enable-background:new 0 0 50 50;" xml:space="preserve">
<style type="text/css">
	.st0{fill:#333333;}
</style>
<title>family-chapternav-watch-master-03-weir</title>
<path id="Apple_Watch_Series_1" class="st0" d="M34.5,23.3v-4.1h-0.8v-1.4c0-0.6-0.2-1.2-0.5-1.8c-0.3-0.6-0.9-1-1.3-1.6
	c-0.5-0.8-0.9-1.6-1.1-2.5c-0.2-1-0.2-1.9-0.3-2.9c-0.1-0.7-0.7-1.1-1.4-1.2c-0.8-0.1-1.5-0.2-2.3-0.2c-0.8,0-1.6-0.1-2.4-0.1
	c-1.5,0-3.1,0.1-4.6,0.4c-0.5,0.1-0.8,0.5-0.9,0.9c-0.1,0.4-0.2,1.5-0.2,2.2c-0.1,1.4-0.6,2.7-1.6,3.7l-0.4,0.4
	c-0.7,0.7-1.1,1.6-1.1,2.6v14.3c0,1,0.4,2,1.1,2.7c1.1,0.8,1.7,2.1,1.9,3.4c0.1,1,0,1.9,0.2,2.9c0.2,0.5,0.6,0.8,1,0.9
	c1.7,0.3,3.3,0.4,5,0.4c1.5,0,3.1-0.1,4.6-0.4c0.5-0.1,0.8-0.5,1-0.9c0.1-0.4-0.1-2.6,0.7-3.9c0.3-0.5,1.4-2.2,1.4-2.2
	s0.1-0.2,0.2-0.2c0.7-0.7,1-1.6,1-2.5v-8.8H34.5z M32.9,32.2c0.1,1.4-1,2.7-2.5,2.8H18.8c-1.4-0.1-2.5-1.3-2.5-2.8V17.8
	c-0.1-1.4,1-2.7,2.5-2.8h11.6c1.4,0.1,2.5,1.3,2.5,2.8V32.2z"/>
</svg>
