<?xml version="1.0" encoding="utf-8"?>
<!-- Generator: Adobe Illustrator 22.1.0, SVG Export Plug-In . SVG Version: 6.00 Build 0)  -->
<svg version="1.1" id="icons" xmlns="http://www.w3.org/2000/svg" xmlns:xlink="http://www.w3.org/1999/xlink" x="0px" y="0px"
	 viewBox="0 0 50 50" style="enable-background:new 0 0 50 50;" xml:space="preserve">
<style type="text/css">
	.st0{fill:none;}
</style>
<title>x</title>
<g id="iPhone_X_R_">
	<path id="iPhone_X_R_2" d="M30.5,7.9h-11c-1.3,0-2.4,1.1-2.4,2.4v28.4c0,1.3,1.1,2.4,2.4,2.4h11c1.3,0,2.4-1.1,2.4-2.4V10.3
		C32.9,9,31.8,7.9,30.5,7.9z M27.3,8.8c0.2,0,0.3,0.1,0.3,0.3c0,0.2-0.1,0.3-0.3,0.3c-0.2,0-0.3-0.1-0.3-0.3c0,0,0,0,0,0
		C27,8.9,27.1,8.8,27.3,8.8C27.3,8.8,27.3,8.8,27.3,8.8z M23.9,8.9h2.3c0.1,0,0.2,0.1,0.2,0.2s-0.1,0.2-0.2,0.2h-2.3
		c-0.1,0-0.2-0.1-0.2-0.2S23.8,8.9,23.9,8.9z M32.2,38.9c0,0.8-0.6,1.4-1.4,1.4H19.3c-0.8,0-1.4-0.6-1.4-1.4V10.2
		c0-0.8,0.6-1.5,1.4-1.5h1.2c0.1,0,0.3,0,0.3,0.2c0,0,0,0.6,0,0.6c0,0.4,0.4,0.7,0.8,0.7h6.7c0.4,0,0.8-0.3,0.8-0.7c0,0,0-0.6,0-0.7
		c0-0.2,0.2-0.2,0.4-0.2h1.2c0.8,0,1.4,0.7,1.4,1.5V38.9z"/>
	<rect x="17.1" y="2.6" class="st0" width="15.8" height="40.7"/>
</g>
</svg>
