<svg id="Layer_1" data-name="Layer 1" xmlns="http://www.w3.org/2000/svg" viewBox="0 0 50 50"><defs><style>.cls-1{fill:none;stroke:#000;stroke-linecap:round;stroke-linejoin:round;}</style></defs><title>shoe</title><path class="cls-1" d="M9.69,24.46c-.66.21-.92.94-1.1,2.79s2.31,6.45,2.73,6.92.7.43.7.43a3.45,3.45,0,0,0,.68,2.52,2.62,2.62,0,0,0,2.52,1.56c.59,0,19.25-8.54,20.65-9.63s4.81-4,5.29-5.16A3.16,3.16,0,0,0,41.28,21a2.7,2.7,0,0,0-2.74-1.59,38,38,0,0,1-7.76.53c-5-.09-9.11-1.64-9.83-1.31s-1,1.92-1,1.92l1.2,1.09-1.95-.56a6.48,6.48,0,0,1-3.5,3.81C12.82,26.29,10.36,24.24,9.69,24.46Z"/><path class="cls-1" d="M24.81,21.9l.7-2.3Z"/><path class="cls-1" d="M27.37,22.18l.64-2.1Z"/><path class="cls-1" d="M29.91,22.47l.56-2.23Z"/><path class="cls-1" d="M9.24,29.85a24.24,24.24,0,0,0,5.15.1,46.85,46.85,0,0,0,6.23-2.39,7.15,7.15,0,0,1,4.25-.14,26.28,26.28,0,0,1,4.24,2.15s-5.4.68-7.07,1.19S12,34.6,12,34.6A13,13,0,0,1,9.24,29.85Z"/><path class="cls-1" d="M29.11,29.57a29.19,29.19,0,0,0,12.35-8.11"/><path class="cls-1" d="M13.57,20.21c.68-1.47,3.14-2.18,4.06-2"/><path class="cls-1" d="M11,18.79a7.66,7.66,0,0,1,7.06-3.29"/><path class="cls-1" d="M8.59,17.31a10.58,10.58,0,0,1,10-4.68"/></svg>