<svg id="Layer_1" data-name="Layer 1" xmlns="http://www.w3.org/2000/svg" xmlns:xlink="http://www.w3.org/1999/xlink" viewBox="0 0 890.38 807.5"><defs><style>.cls-1,.cls-15,.cls-2,.cls-4{fill:none;}.cls-2{stroke:#eaeaea;stroke-width:4px;}.cls-3{fill:#f1f2f8;}.cls-3,.cls-4{stroke:#ddd;stroke-miterlimit:10;}.cls-14,.cls-16,.cls-17,.cls-4{stroke-width:2px;}.cls-5{clip-path:url(#clip-path);}.cls-6{fill:#ffda83;}.cls-7,.cls-8{isolation:isolate;}.cls-8{font-size:4.47px;fill:#44435d;font-family:ArialMT, Arial;}.cls-9{font-size:31.94px;font-family:HelveticaNeue-Bold, Helvetica Neue;font-weight:700;}.cls-18,.cls-9{fill:#fff;}.cls-10{letter-spacing:-0.11em;}.cls-11{letter-spacing:0em;}.cls-12{letter-spacing:-0.07em;}.cls-13{letter-spacing:-0.03em;}.cls-14{fill:#58bc77;}.cls-14,.cls-16,.cls-17{stroke:#fff;}.cls-15{stroke:#010101;stroke-opacity:0.3;}.cls-16{fill:#4f6ab2;}.cls-17{fill:#ec2073;}.cls-18{font-size:20px;font-family:HelveticaNeue, Helvetica Neue;}.cls-19{letter-spacing:-0.02em;}.cls-20{letter-spacing:0em;}.cls-21{fill:#f16284;stroke:#f16284;stroke-width:5px;}.cls-22{letter-spacing:-0.07em;}</style><clipPath id="clip-path"><polygon class="cls-1" points="645.76 535.53 645.76 631.4 540.99 749.54 460.98 749.54 504.06 598.45 645.76 535.53"/></clipPath></defs><title>DashboardInfo</title><rect class="cls-2" x="101.44" y="55.78" width="716.65" height="333.52"/><rect class="cls-2" x="101.44" y="122.89" width="716.65" height="200.34"/><rect class="cls-2" x="101.44" y="184.67" width="716.65" height="70.77"/><rect class="cls-2" x="89.03" y="171.04" width="333.52" height="103.01" transform="translate(478.34 -33.25) rotate(90)"/><rect class="cls-2" x="294.2" y="171.88" width="333.52" height="101.34" transform="translate(683.51 -238.42) rotate(90)"/><rect class="cls-2" x="497.26" y="171.88" width="333.52" height="101.34" transform="translate(886.57 -441.48) rotate(90)"/><g id="画板_2" data-name="画板 2"><g id="组_271" data-name="组 271"><path id="路径_386" data-name="路径 386" class="cls-3" d="M645.82,611.34c59.82,0,108.23,51.81,108.23,115.77h57.58c0-98-74.2-177.46-165.91-177.46S479.91,629.26,479.91,727.22h57.58C537.49,663.26,586,611.34,645.82,611.34Z"/><g id="组_268" data-name="组 268"><line id="直线_12" data-name="直线 12" class="cls-4" x1="829.67" y1="727.21" x2="817.2" y2="727.21"/><line id="直线_13" data-name="直线 13" class="cls-4" x1="822.84" y1="673.97" x2="810.8" y2="677.56"/><line id="直线_14" data-name="直线 14" class="cls-4" x1="798.87" y1="618.29" x2="788.46" y2="625.71"/><line id="直线_15" data-name="直线 15" class="cls-4" x1="759.61" y1="572.93" x2="751.91" y2="583.49"/><line id="直线_16" data-name="直线 16" class="cls-4" x1="710.58" y1="543.46" x2="706.13" y2="555.99"/><line id="直线_17" data-name="直线 17" class="cls-4" x1="462.96" y1="727.21" x2="475.43" y2="727.21"/><line id="直线_18" data-name="直线 18" class="cls-4" x1="469.79" y1="673.97" x2="481.83" y2="677.56"/><line id="直线_19" data-name="直线 19" class="cls-4" x1="493.87" y1="618.29" x2="504.17" y2="625.71"/><line id="直线_20" data-name="直线 20" class="cls-4" x1="533.03" y1="572.93" x2="540.73" y2="583.49"/><line id="直线_21" data-name="直线 21" class="cls-4" x1="582.16" y1="543.46" x2="586.5" y2="555.99"/><line id="直线_22" data-name="直线 22" class="cls-4" x1="646.37" y1="544.39" x2="646.37" y2="531.05"/></g><g id="Gauge_Chart" data-name="Gauge Chart"><g class="cls-5"><g id="组_5" data-name="组 5"><path id="路径_388" data-name="路径 388" class="cls-6" d="M645.49,611.23c59.87,0,108.33,53.11,108.33,118.66h57.67C811.49,629.45,737.18,548,645.37,548s-166,81.62-166,182.06H537C537,664.45,585.62,611.23,645.49,611.23Z"/></g><g id="number"><g id="_0" data-name=" 0" class="cls-7"><text class="cls-8" transform="translate(433.21 742.7)">0</text></g><g id="_100" data-name=" 100" class="cls-7"><text class="cls-8" transform="translate(846.23 742.7)">100</text></g><g id="_10" data-name=" 10" class="cls-7"><text class="cls-8" transform="translate(438.88 684.52)">10</text></g><g id="_90" data-name=" 90" class="cls-7"><text class="cls-8" transform="translate(846.24 684.52)">90</text></g><g id="_20" data-name=" 20" class="cls-7"><text class="cls-8" transform="translate(462.83 614.44)">20</text></g><g id="_80" data-name=" 80" class="cls-7"><text class="cls-8" transform="translate(819.89 614.44)">80</text></g><g id="_30" data-name=" 30" class="cls-7"><text class="cls-8" transform="translate(512.96 564.2)">30</text></g><g id="_70" data-name=" 70" class="cls-7"><text class="cls-8" transform="translate(777.35 564.2)">70</text></g><g id="_40" data-name=" 40" class="cls-7"><text class="cls-8" transform="translate(569.28 528.04)">40</text></g><g id="_60" data-name=" 60" class="cls-7"><text class="cls-8" transform="translate(720.72 528.04)">60</text></g><g id="_50" data-name=" 50" class="cls-7"><text class="cls-8" transform="translate(645.01 513.95)">50</text></g></g></g></g></g></g><text class="cls-9" transform="translate(445.19 514.25)"><tspan class="cls-10">T</tspan><tspan class="cls-11" x="15.97" y="0">oday</tspan><tspan class="cls-12" x="89.92" y="0">’</tspan><tspan x="96.44" y="0">s </tspan><tspan class="cls-10" x="122.47" y="0">T</tspan><tspan x="138.45" y="0">a</tspan><tspan class="cls-13" x="156.78" y="0">r</tspan><tspan x="168.31" y="0">get :</tspan></text><text class="cls-9" transform="translate(572.63 700.57)">255m left</text><path class="cls-14" d="M199.16,621.21,106,577.36a103,103,0,0,1,93.2-59.15Z"/><path class="cls-15" d="M144.16,534.71l-11-17h-8"/><path class="cls-16" d="M199.16,621.21v-103a103,103,0,0,1,93.19,146.86Z"/><path class="cls-15" d="M286.16,566.71l18-11h8"/><path class="cls-17" d="M199.16,621.21l93.19,43.86A103,103,0,1,1,106,577.36Z"/><path class="cls-15" d="M156.16,714.71l-9,19h-8"/><text class="cls-18" transform="translate(54.26 507.04)">Metabolic<tspan x="26.86" y="18">rate</tspan></text><text class="cls-18" transform="translate(314.42 547.22)">Physical<tspan x="5.74" y="18">activity</tspan></text><text class="cls-18" transform="translate(55.24 756.55)">Thermic E<tspan class="cls-19" x="90.02" y="0">f</tspan><tspan class="cls-20" x="95.58" y="0">fect of Food </tspan></text><circle class="cls-21" cx="101.44" cy="311.57" r="7.17"/><circle class="cls-21" cx="204.29" cy="176.66" r="7.17"/><circle class="cls-21" cx="307.3" cy="252.66" r="7.17"/><circle class="cls-21" cx="410.3" cy="106.12" r="7.17"/><circle class="cls-21" cx="509.96" cy="326.84" r="7.17"/><circle class="cls-21" cx="612.35" cy="177.7" r="7.17"/><circle class="cls-21" cx="715.52" cy="96.5" r="7.17"/><circle class="cls-21" cx="818.08" cy="92.07" r="7.17"/><line class="cls-21" x1="101.44" y1="311.57" x2="204.29" y2="176.66"/><line class="cls-21" x1="307.3" y1="252.66" x2="204.29" y2="176.66"/><line class="cls-21" x1="410.3" y1="106.12" x2="307.3" y2="252.66"/><line class="cls-21" x1="410.3" y1="106.12" x2="509.96" y2="326.84"/><line class="cls-21" x1="612.35" y1="177.7" x2="509.96" y2="326.84"/><line class="cls-21" x1="715.52" y1="96.5" x2="612.35" y2="177.7"/><line class="cls-21" x1="818.08" y1="92.07" x2="714.69" y2="96.14"/><text class="cls-18" transform="translate(45.46 61.73)">100</text><text class="cls-18" transform="translate(56.58 128.29)">90</text><text class="cls-18" transform="translate(56.58 194.85)">80</text><text class="cls-18" transform="translate(56.58 261.4)">70</text><text class="cls-18" transform="translate(56.58 327.96)">60</text><text class="cls-18" transform="translate(56.58 394.52)">50</text><text class="cls-18" transform="translate(82.55 422.27)">JAN</text><text class="cls-18" transform="translate(185.11 422.27)">FEB</text><text class="cls-18" transform="translate(284.13 422.27)">MAR</text><text class="cls-18" transform="translate(388.79 422.27)">APR</text><text class="cls-18" transform="translate(489.98 422.27)">M<tspan class="cls-22" x="17.42" y="0">A</tspan><tspan x="28.9" y="0">Y</tspan></text><text class="cls-18" transform="translate(593.65 422.27)">JUN</text><text class="cls-18" transform="translate(697.68 422.27)">JUL</text><text class="cls-18" transform="translate(796.79 422.27)">AUG</text></svg>